Coordinates
version=1
nRows=18
nColumns=34
inDegrees=yes
inDegrees=no

Units are S.I. units (second, meters, Newtons, ...)
If the header above contains a line with 'inDegrees', this indicates whether rotational values are in degrees (yes) or radians (no).

endheader
time	pelvis_tilt	pelvis_list	pelvis_rotation	pelvis_tx	pelvis_ty	pelvis_tz	hip_flexion_r	hip_adduction_r	hip_rotation_r	knee_angle_r	ankle_angle_r	subtalar_angle_r	mtp_angle_r	hip_flexion_l	hip_adduction_l	hip_rotation_l	knee_angle_l	ankle_angle_l	subtalar_angle_l	mtp_angle_l	lumbar_extension	lumbar_bending	lumbar_rotation	arm_flex_r	arm_add_r	arm_rot_r	elbow_flex_r	pro_sup_r	arm_flex_l	arm_add_l	arm_rot_l	elbow_flex_l	pro_sup_l
0.000000 0.445233 -0.035482 -0.255860 -0.012063 0.008868 -0.003711 1.137627 0.166005 -0.185760 0.656865 -0.582235 -0.497903 0.000000 1.104622 -0.270085 -0.306943 0.768749 0.027858 0.282381 0.000000 -1.047453 0.075151 -0.190342 -0.076741 -0.390384 0.183987 1.622753 1.692107 1.427495 0.054921 0.837153 0.759019 1.136083
0.016667 0.424045 -0.025991 -0.269179 -0.012261 0.008858 -0.003638 1.133581 0.181928 -0.164417 0.671805 -0.420004 -0.391156 0.000000 1.097497 -0.228939 -0.391004 0.698243 -0.029420 0.236504 0.000000 -1.006789 0.046408 -0.221566 -0.055300 -0.428528 0.305995 1.515415 1.692192 1.389068 0.030651 0.830767 0.703075 1.177552
0.033333 0.414139 -0.016618 -0.272675 -0.012618 0.008793 -0.003586 1.141652 0.194952 -0.164347 0.689564 -0.398804 -0.340882 0.000000 1.082070 -0.218186 -0.399774 0.668153 -0.089148 0.220107 0.000000 -0.979992 0.027479 -0.233110 -0.049477 -0.467398 0.378447 1.537457 1.698087 1.337147 -0.010306 0.837624 0.752303 1.240969
0.050000 0.423829 -0.012605 -0.255739 -0.012625 0.008811 -0.003638 1.123195 0.190741 -0.174378 0.684866 -0.379194 -0.291123 0.000000 1.075858 -0.203088 -0.381710 0.681718 -0.098072 0.215301 0.000000 -0.958135 0.030325 -0.254982 -0.059983 -0.495467 0.366974 1.600871 1.703610 1.256320 -0.049092 0.808265 0.792630 1.264093
0.066667 0.435919 -0.009706 -0.241875 -0.012737 0.008780 -0.003653 1.114039 0.185932 -0.161583 0.703361 -0.351887 -0.270951 0.000000 1.071332 -0.187226 -0.377142 0.676278 -0.136067 0.188647 0.000000 -0.941430 0.029524 -0.261398 -0.098142 -0.518624 0.357258 1.627773 1.707554 1.196697 -0.087870 0.813757 0.842144 1.275627
0.083333 0.442456 -0.016795 -0.226236 -0.012865 0.008754 -0.003678 1.120994 0.177611 -0.150198 0.724166 -0.349953 -0.249194 0.000000 1.078676 -0.181121 -0.359233 0.685827 -0.162289 0.167291 0.000000 -0.923165 0.038135 -0.257652 -0.136329 -0.550272 0.364269 1.642011 1.709923 1.148396 -0.129557 0.807930 0.882783 1.280866
0.100000 0.465595 -0.021682 -0.202933 -0.012957 0.008724 -0.003668 1.102928 0.162170 -0.134354 0.724285 -0.355199 -0.228377 0.000000 1.066024 -0.165966 -0.356951 0.676191 -0.200688 0.153313 0.000000 -0.914083 0.042974 -0.256229 -0.165722 -0.585932 0.370434 1.682759 1.709321 1.119071 -0.167006 0.817274 0.893729 1.282142
0.116667 0.462552 -0.017555 -0.184239 -0.012790 0.008734 -0.003764 1.100197 0.142027 -0.137623 0.699276 -0.365960 -0.205090 0.000000 1.068943 -0.144697 -0.355281 0.687235 -0.199057 0.131750 0.000000 -0.876745 0.046436 -0.254824 -0.187546 -0.614085 0.375333 1.710417 1.708050 1.082884 -0.199385 0.820414 0.895991 1.280480
0.133333 0.464889 -0.017207 -0.173682 -0.012839 0.008771 -0.003784 1.091270 0.132564 -0.140655 0.692787 -0.363024 -0.175666 0.000000 1.061525 -0.135389 -0.361678 0.689293 -0.191988 0.124329 0.000000 -0.852330 0.051788 -0.246431 -0.173189 -0.648304 0.402011 1.728610 1.697106 1.046286 -0.236067 0.788335 0.916448 1.264826
0.150000 0.466485 -0.012825 -0.156701 -0.012857 0.008762 -0.003803 1.087783 0.118005 -0.145435 0.690200 -0.357812 -0.165665 0.000000 1.059721 -0.120646 -0.372854 0.707425 -0.170099 0.122116 0.000000 -0.820438 0.054246 -0.242086 -0.126362 -0.673179 0.455602 1.708987 1.675150 1.013572 -0.266038 0.764779 0.908868 1.248814
0.166667 0.457561 -0.012548 -0.139513 -0.012805 0.008776 -0.003832 1.110003 0.105633 -0.172356 0.747199 -0.320355 -0.143043 0.000000 1.067088 -0.109342 -0.374222 0.734596 -0.144365 0.118251 0.000000 -0.789937 0.065242 -0.211854 -0.102672 -0.685156 0.464269 1.695705 1.660948 1.000485 -0.274528 0.725555 0.894975 1.240043
0.183333 0.470943 -0.018581 -0.125566 -0.012939 0.008753 -0.003828 1.097168 0.097366 -0.202389 0.763245 -0.284715 -0.091792 0.000000 1.053684 -0.103754 -0.374588 0.739342 -0.133398 0.127760 0.000000 -0.779849 0.074826 -0.168079 -0.065304 -0.699005 0.456684 1.707224 1.651661 1.003530 -0.280726 0.695194 0.891360 1.235491
0.200000 0.473900 -0.017963 -0.101583 -0.012881 0.008769 -0.003941 1.099871 0.071439 -0.218716 0.759605 -0.274459 -0.047788 0.000000 1.058354 -0.079534 -0.371182 0.757118 -0.117891 0.116690 0.000000 -0.758426 0.093801 -0.122337 -0.037435 -0.703804 0.419792 1.711868 1.636474 0.991534 -0.272207 0.634433 0.918311 1.229580
0.216667 0.480600 -0.020571 -0.096917 -0.013019 0.008713 -0.003926 1.089047 0.068941 -0.213637 0.720537 -0.301027 -0.018609 0.000000 1.056599 -0.076812 -0.371967 0.759600 -0.113896 0.118591 0.000000 -0.749611 0.103430 -0.051458 -0.004517 -0.714967 0.377488 1.721463 1.622006 1.003605 -0.259767 0.599214 0.958416 1.232462
0.233333 0.485604 -0.016772 -0.097185 -0.012994 0.008757 -0.004017 1.073174 0.065248 -0.195220 0.679790 -0.332327 -0.001598 0.000000 1.050549 -0.066328 -0.374591 0.743226 -0.130398 0.105636 0.000000 -0.743571 0.106957 0.008088 0.049521 -0.729274 0.346075 1.714628 1.617768 1.028990 -0.252584 0.591105 0.980390 1.234365
0.250000 0.482498 -0.012145 -0.097393 -0.012996 0.008740 -0.004044 1.073012 0.059502 -0.185557 0.657901 -0.363801 0.006948 0.000000 1.050776 -0.057896 -0.376753 0.732439 -0.136147 0.102321 0.000000 -0.744658 0.111563 0.064998 0.095032 -0.740958 0.293107 1.722603 1.608419 1.059126 -0.256682 0.577895 1.035772 1.241631
0.266667 0.479883 -0.012231 -0.092140 -0.013044 0.008700 -0.004061 1.078123 0.050784 -0.183564 0.657144 -0.378890 0.005155 0.000000 1.054031 -0.049970 -0.375017 0.720148 -0.153009 0.102610 0.000000 -0.744402 0.116404 0.116738 0.155948 -0.756733 0.260404 1.709837 1.605250 1.107413 -0.247129 0.570421 1.055092 1.244032
0.283333 0.474206 -0.012027 -0.090651 -0.012987 0.008643 -0.004080 1.095245 0.045724 -0.181716 0.676157 -0.377859 -0.008600 0.000000 1.065428 -0.046827 -0.373769 0.711246 -0.168219 0.102191 0.000000 -0.736468 0.118240 0.168969 0.210736 -0.776083 0.233089 1.691747 1.602647 1.152619 -0.231308 0.563989 1.074304 1.246856
